<?xml version="1.0" encoding="UTF-8"?>
<svg id="Layer_1" xmlns="http://www.w3.org/2000/svg" version="1.1" viewBox="0 0 1400 1400">
  <!-- Generator: Adobe Illustrator 29.1.0, SVG Export Plug-In . SVG Version: 2.1.0 Build 142)  -->
  <defs>
    <style>
      .st0 {
        font-family: BerkshireSwash-Regular, 'Berkshire Swash';
        font-size: 200px;
      }

      .st0, .st1 {
        fill: #db431d;
      }

      .st2 {
        fill: #76ab31;
      }

      .st3 {
        fill: #3a2822;
      }

      .st4 {
        fill: #f48e23;
      }

      .st5 {
        fill: #13541c;
      }
    </style>
  </defs>
  <text class="st0" transform="translate(252.2 1136.8)"><tspan x="0" y="0">Valli Mess</tspan></text>
  <g>
    <path class="st2" d="M280.3,549.3c2.8,0,5.5,0,8.3,0,23.2.2,47.2,10.6,63.4,27.1,16.3,16.7,22,34.5,21.8,57.4-11.3-20.5-30.7-37.1-49.9-50-.5-.2-1.1-.5-1.7-.7,1.8,3,7.2,6.2,9.9,8.8,3.5,3.4,6.9,6.8,10.3,10.3,9.8,10.4,18.2,22.1,25.9,34.2-12.6-3.2-25.2-6.9-36.6-13.4-30.6-17.6-42.5-40.8-51.3-73.7Z"/>
    <path class="st2" d="M1105.9,549.6c4.6-.4,9.3-.2,13.9-.2-3.3,15.4-8.8,29.8-17.8,42.8-17.3,24.7-42.7,37.2-71.7,42.4,12.6-16.4,24.3-32,40-45.7l4.9-4.4c-20.8,10.5-39.7,31.6-52.7,50.5,0-1.2,0-2.4.1-3.6,0-1.2.1-2.4.3-3.6.1-1.2.3-2.4.4-3.6.2-1.2.4-2.4.6-3.6.2-1.2.5-2.4.7-3.6.3-1.2.6-2.4.9-3.5.3-1.2.7-2.3,1.1-3.5.4-1.2.8-2.3,1.2-3.4.4-1.1.9-2.3,1.4-3.4.5-1.1,1-2.2,1.5-3.3.5-1.1,1.1-2.2,1.7-3.2.6-1.1,1.2-2.1,1.8-3.2.6-1,1.3-2.1,1.9-3.1.7-1,1.4-2,2.1-3,.7-1,1.4-2,2.2-2.9.8-1,1.5-1.9,2.3-2.8.5-.6,1-1.2,1.5-1.7.5-.6,1-1.1,1.5-1.7.5-.6,1-1.1,1.6-1.6.5-.5,1.1-1.1,1.6-1.6.5-.5,1.1-1,1.7-1.6.6-.5,1.1-1,1.7-1.5.6-.5,1.1-1,1.7-1.5.6-.5,1.2-1,1.8-1.4.6-.5,1.2-.9,1.8-1.4.6-.5,1.2-.9,1.8-1.3.6-.4,1.2-.9,1.9-1.3.6-.4,1.3-.8,1.9-1.3.6-.4,1.3-.8,1.9-1.2.6-.4,1.3-.8,2-1.2.7-.4,1.3-.7,2-1.1.7-.4,1.3-.7,2-1.1.7-.3,1.4-.7,2-1,.7-.3,1.4-.6,2.1-1,.7-.3,1.4-.6,2.1-.9.7-.3,1.4-.6,2.1-.8.7-.3,1.4-.5,2.1-.8.7-.3,1.4-.5,2.1-.7.7-.2,1.4-.5,2.2-.7.7-.2,1.5-.4,2.2-.6.7-.2,1.5-.4,2.2-.6.7-.2,1.5-.4,2.2-.5.7-.2,1.5-.3,2.2-.5.7-.1,1.5-.3,2.2-.4.7-.1,1.5-.2,2.2-.4.8-.1,1.5-.2,2.3-.3.8,0,1.5-.2,2.3-.2.8,0,1.5-.1,2.3-.2Z"/>
    <path class="st3" d="M855.4,410.4l.4.5c-5.6,8.3-13.4,16.2-19.9,23.8-18.2,21.2-36.7,41.8-56.5,61.5,1.8,1.9,4,3.6,6,5.4,7.6-4.8,13.8-12.5,20.3-18.6,12.6-12.1,25.4-24,38-36.2,8.7-8.5,18.2-19.1,27.8-26.3-16.2,20.8-32.7,41.1-50.3,60.7-8.7,9.7-18.1,18.6-26.8,28.4,2.4,2.1,4.7,4.5,7.1,6.7,7.7-6.8,14.7-14.7,21.9-22,11.4-11.5,23-22.8,34.3-34.5,8.6-8.9,18-20.2,28.1-27.1-6.8,8.1-12.9,16.8-19.7,25-18.3,22.1-37.5,43.6-55.4,65.9l7.8,7.6,4.1-4c6.7-7.5,72.1-80.8,74.1-81.2,0,1.2-.6,2.1-1.2,3.2-8.2,14.7-19.4,27.9-29,41.6l-26.3,37.3c-4.8,6.8-9.8,14.8-15.7,20.8-3.9,4-9,6.8-14.3,8.3-13.3,3.8-25.2-.8-36.8-7.2-14.8,14-27.4,30.7-38.9,47.4-8.6-1-17.3-2.3-25.9-3.3,18.7-17.4,37.9-35.1,53.8-55.1-5.6-8.3-12.6-18.6-10.5-29.1,1.1-5.7,5.2-11.2,8.9-15.6,5.7-6.6,12.4-12.2,18.7-18.2,16-15,32.4-29.3,49.2-43.5,8.8-7.4,17.2-15.7,26.6-22.2Z"/>
    <path class="st3" d="M546.4,420.2c6.5,5.2,12.3,13.6,17.4,20.1,11.8,14.5,23.2,29.4,34.2,44.5,27.2,36.6,54.5,72.9,80.6,110.3-6.2.6-12.3,1.4-18.4,2.3-6.8,1-13.3,2.3-19.9,4.4-4.9-4.8-9-10.6-14.5-14.7-6.1-4.6-13.3-7.8-20-11.3-7.8-4-15.3-8.6-22.1-14.2-26.4-21.7-48.4-63.2-51.4-97.3-1.5-16.3,3.7-31.7,14.1-44.2Z"/>
    <path class="st2" d="M1104.9,373.9l1.1.2c1.5,2.7,1.8,7.4,2.3,10.5,3.3,20.1,4.1,39.3-.3,59.4-10.7,49-42.8,77.5-83,103.3,2.9-9.7,4.5-20,7.2-29.9,8.8-32.9,19.7-56.4,39-84.5l.3-.7c-.3.1-.5.2-.8.4-4.4,3.2-9.8,11.1-13.3,15.6-14.4,18.8-26.2,39.1-33.8,61.6-2.8,8.4-4.9,17-7.2,25.6-8.5-28.6-12.2-58.1-.2-86.4,16.2-38.2,52-60.1,88.8-75Z"/>
    <path class="st2" d="M294.1,374.1c4.4,1.5,8.7,3.1,12.9,5,32.5,13.8,63.7,37.6,77.1,71.3,11.4,28.6,9,56.4-2.9,84.3-3.9-38.2-29.5-73.6-54.7-101.1-.7-.7-1.4-1.2-2.1-1.8,1.1,3.2,12.4,17.1,15.4,21.9,16.9,27,29.2,58.5,32.7,90.3-28.7-11.9-54.5-35.1-69.4-62.3-14.2-25.9-16-55.3-12.9-84.1.8-7.8,1.8-16,4-23.6Z"/>
    <path class="st1" d="M688,388.9c12-1.2,24.7.9,35.4,6.8,12.7,7.1,22.8,19.9,26.6,33.9,4.1,14.8,2.6,31.7-5.1,45-7.7,13.2-19.9,22.1-34.5,26-2.3,6-3.7,12.1-4.4,18.5-2,18.6-1.5,37.4-1.2,56.1,0,3.1,1.1,16.4-.2,18.6-5.1-.2-10.2-.1-15.3,0v-39c.2-17.6,1.4-36.2-4.2-53.1-8.6-2.2-16.8-5.1-24-10.3-.7-.5-1.5-1.1-2.2-1.7-.7-.6-1.4-1.2-2.1-1.8-.7-.6-1.3-1.2-2-1.9-.7-.6-1.3-1.3-1.9-2-.6-.7-1.2-1.4-1.8-2.1-.6-.7-1.1-1.4-1.7-2.2-.5-.7-1.1-1.5-1.6-2.2-.5-.8-1-1.5-1.5-2.3-.5-.8-.9-1.6-1.4-2.4-.4-.8-.8-1.6-1.2-2.4-.4-.8-.8-1.7-1.1-2.5-.4-.8-.7-1.7-1-2.6-.3-.9-.6-1.7-.9-2.6-.3-.9-.5-1.8-.7-2.6-.2-.9-.4-1.8-.6-2.7-.2-.9-.3-1.8-.5-2.7-2.2-15.2.9-31.6,10.2-44,9.4-12.5,23.6-19.6,38.8-21.8Z"/>
    <path class="st5" d="M886.9,774.7c21.3-.6,42.8-.1,64.1-.3-5.7,6-10.8,12.6-16.3,18.7-7.8,8.5-16.3,16.6-24.9,24.4-46.1,41.8-105.5,66.6-166.8,74.8-2.6.4-5.2.7-7.9,1-2.6.3-5.3.6-7.9.8-2.6.2-5.3.4-7.9.6-2.6.2-5.3.3-7.9.4-2.6,0-5.3.2-7.9.2-2.6,0-5.3,0-7.9,0-2.6,0-5.3,0-7.9-.2-2.6,0-5.3-.2-7.9-.4-2.6-.2-5.3-.4-7.9-.6-2.6-.2-5.3-.5-7.9-.8-2.6-.3-5.3-.6-7.9-1-2.6-.4-5.2-.7-7.9-1.2-2.6-.4-5.2-.9-7.8-1.4-2.6-.5-5.2-1-7.8-1.5-2.6-.5-5.2-1.1-7.7-1.7-2.6-.6-5.1-1.3-7.7-1.9-2.6-.7-5.1-1.4-7.7-2.1-2.5-.7-5.1-1.5-7.6-2.3-2.5-.8-5-1.6-7.5-2.5-2.5-.9-5-1.8-7.5-2.7-2.5-.9-5-1.9-7.4-2.9-2.5-1-4.9-2-7.3-3-2.4-1-4.9-2.1-7.3-3.2-2.4-1.1-4.8-2.2-7.2-3.4-2.4-1.2-4.7-2.3-7.1-3.6-2.3-1.2-4.7-2.5-7-3.7-2.3-1.3-4.6-2.6-6.9-3.9-2.3-1.3-4.6-2.7-6.8-4.1-2.3-1.4-4.5-2.8-6.7-4.2-2.2-1.4-4.4-2.9-6.6-4.4s-4.3-3-6.5-4.6c-2.1-1.5-4.3-3.1-6.4-4.7-21-16.3-40.2-33.6-57.1-54.3,22.9,0,45.9,0,68.8.4,2.5,2.4,5.1,4.7,7.7,7,2.6,2.3,5.3,4.5,8,6.7,2.7,2.2,5.5,4.3,8.3,6.4,2.8,2.1,5.6,4.1,8.5,6.1,2.9,2,5.8,3.9,8.7,5.7,3,1.9,5.9,3.6,9,5.4,3,1.7,6.1,3.4,9.2,5,3.1,1.6,6.2,3.2,9.4,4.6,60.4,28.7,132.8,34.5,196.6,13.6,20.8-6.8,40.1-16.5,59-27.5,10.3-6.1,20.8-12.7,30.2-20.2,3.7-2.9,12.7-12.2,16.4-13.3.3,0,.5-.1.8-.2Z"/>
    <path class="st4" d="M683.6,599.3c18.4-1.2,35.3.9,53.3,4.1,9.9,1.7,19.7,3.6,29.3,6.7,46.4,15.4,90.7,53.3,112.6,97h-236.8s-79.7,0-79.7,0c-15.7,0-31.6-.5-47.3.4,7-8.4,15.5-15.3,24.1-22.1,36.3-28.8,80.5-49.8,126.6-56.1,14.7-2.4,30.4-2.4,45.3-1.6,34.9,1.8,67,10.1,97.7,27.1,6.2,3.5,11.9,7.7,18,11.3-.4-.4-.8-.8-1.2-1.2-5.7-5.4-12.8-9.8-19.3-14.4-37.7-26.4-79.6-39.6-125.6-38.1-1.4,0-2.8.1-4.2.2-1.4,0-2.8.2-4.2.3-1.4.1-2.8.3-4.2.4-1.4.1-2.8.3-4.2.5-1.4.2-2.8.4-4.2.6-1.4.2-2.8.4-4.2.7-1.4.2-2.8.5-4.2.7-1.4.3-2.8.5-4.2.8-1.4.3-2.8.6-4.1.9-1.4.3-2.8.7-4.1,1-1.4.3-2.7.7-4.1,1.1-1.4.4-2.7.8-4.1,1.2-1.4.4-2.7.8-4.1,1.3-1.3.4-2.7.9-4,1.3-1.3.5-2.7.9-4,1.4-1.3.5-2.7,1-4,1.5-1.3.5-2.6,1-3.9,1.6-1.3.5-2.6,1.1-3.9,1.7-1.3.6-2.6,1.1-3.9,1.7-1.3.6-2.6,1.2-3.8,1.8-1.3.6-2.5,1.3-3.8,1.9-1.3.6-2.5,1.3-3.8,2-1.2.7-2.5,1.4-3.7,2.1-1.2.7-2.5,1.4-3.7,2.1-1.2.7-2.4,1.5-3.6,2.2-1.2.7-2.4,1.5-3.6,2.3-1.2.8-2.4,1.6-3.5,2.4-1.2.8-2.3,1.6-3.5,2.4-1.2.8-2.3,1.7-3.4,2.5-1.1.8-2.3,1.7-3.4,2.6-1.1.9-2.2,1.7-3.3,2.6-1.1.9-2.2,1.8-3.3,2.7-13.2,10.9-25.2,23.5-36.9,36,5-8.2,10.6-16,16.8-23.4,37.6-45.1,89.5-69,147.4-74.1Z"/>
    <path class="st1" d="M414.1,716.1l398.8.2h134s39.4,0,39.4,0c7.8,0,15.7-.6,23.4,0,5.7.4,10.6,1.9,14.9,5.9,4.9,4.6,7.7,11.6,7.6,18.2,0,6.5-2.9,12.5-7.5,17-10,9.7-26.8,7-39.5,6.9l-401.1.3-134.9.7h-39.9c-6.1,0-12.6.4-18.7,0-5.4-.4-10.7-3-14.7-6.6-4.9-4.4-8.1-10.5-8.4-17.1-.3-6.7,2.4-13.8,7.1-18.6,9.2-9.3,27.2-6.8,39.3-6.8Z"/>
    <path class="st4" d="M698.9,210.7c1.3.3,66.9,57.3,74.2,63.7,5.6,4.9,11.2,11.1,17.4,15.3,4.8,3.2,13.4,5.3,19,7.5,68.5,27.1,127.2,80.4,162.7,144.7,5.5,10,10.1,20.5,14.6,30.9,1,2.3,1.9,4.6,2.9,6.9.9,2.3,1.8,4.7,2.7,7,.9,2.3,1.7,4.7,2.5,7.1.8,2.4,1.6,4.7,2.4,7.1.8,2.4,1.5,4.8,2.2,7.2.7,2.4,1.4,4.8,2,7.2.6,2.4,1.3,4.9,1.8,7.3.6,2.4,1.1,4.9,1.7,7.3.5,2.5,1,4.9,1.5,7.4.5,2.5.9,4.9,1.3,7.4.4,2.5.8,5,1.1,7.4.3,2.5.7,5,.9,7.5.3,2.5.5,5,.8,7.5.2,2.5.4,5,.6,7.5.2,2.5.3,5,.4,7.5.1,2.5.2,5,.2,7.5,0,2.5,0,5,0,7.5,0,2.5,0,5-.2,7.5,0,2.5-.2,5-.3,7.5-.1,2.5-.3,5-.5,7.5-.2,2.5-.4,5-.7,7.5-.3,2.5-.6,5-.9,7.5-.3,2.5-.7,5-1.1,7.4-.4,2.5-.8,4.9-1.2,7.4-.4,2.5-.9,4.9-1.4,7.4-.5,2.5-1,4.9-1.6,7.3s-1.2,4.9-1.8,7.3c-.6,2.4-1.3,4.8-2,7.3-.7,2.4-1.4,4.8-2.1,7.2-.7,2.4-1.5,4.8-2.3,7.2-.8,2.4-1.6,4.7-2.5,7.1-.9,2.4-1.7,4.7-2.7,7h-54.5c15.2-31,26-67.8,27.5-102.4.1-2.2.2-4.4.2-6.6,0-2.2,0-4.4,0-6.6,0-2.2,0-4.4-.1-6.6,0-2.2-.2-4.4-.3-6.6-.1-2.2-.3-4.4-.4-6.6-.2-2.2-.4-4.4-.6-6.6-.2-2.2-.5-4.4-.8-6.5-.3-2.2-.6-4.4-.9-6.5-.3-2.2-.7-4.3-1.1-6.5-.4-2.2-.8-4.3-1.2-6.5-.4-2.2-.9-4.3-1.4-6.4-.5-2.1-1-4.3-1.6-6.4-.5-2.1-1.1-4.3-1.7-6.4-.6-2.1-1.2-4.2-1.9-6.3-.7-2.1-1.3-4.2-2-6.3-.7-2.1-1.4-4.2-2.2-6.2-.8-2.1-1.5-4.1-2.3-6.2-.8-2-1.6-4.1-2.5-6.1-.9-2-1.7-4-2.6-6-.9-2-1.8-4-2.8-6-1-2-1.9-3.9-2.9-5.9-1-2-2-3.9-3.1-5.8-1.1-1.9-2.1-3.8-3.2-5.7-1.1-1.9-2.2-3.8-3.4-5.7-1.1-1.9-2.3-3.7-3.5-5.6-1.2-1.8-2.4-3.7-3.6-5.5-1.2-1.8-2.5-3.6-3.8-5.4-1.3-1.8-2.6-3.6-3.9-5.3-1.3-1.8-2.7-3.5-4-5.2-1.4-1.7-2.8-3.4-4.2-5.1-1.4-1.7-2.8-3.4-4.3-5-1.5-1.7-2.9-3.3-4.4-4.9-1.5-1.6-3-3.3-4.5-4.8-1.5-1.6-3.1-3.2-4.6-4.7-1.6-1.6-3.1-3.1-4.7-4.6-1.6-1.5-3.2-3-4.9-4.5-1.6-1.5-3.3-2.9-5-4.4-1.7-1.4-3.4-2.9-5.1-4.2-1.7-1.4-3.4-2.8-5.2-4.1-1.7-1.4-3.5-2.7-5.3-4-1.8-1.3-3.6-2.6-5.4-3.9-1.8-1.3-3.6-2.5-5.5-3.7-1.8-1.2-3.7-2.4-5.6-3.6-1.9-1.2-3.8-2.3-5.6-3.4-1.9-1.1-3.8-2.2-5.7-3.3-1.9-1.1-3.9-2.1-5.8-3.2-2-1-3.9-2-5.9-3-2-1-4-1.9-6-2.9-2-.9-4-1.8-6-2.7-2-.9-4.1-1.7-6.1-2.6-2-.8-4.1-1.6-6.2-2.4-2.1-.8-4.1-1.5-6.2-2.2-2.1-.7-4.2-1.4-6.3-2.1-2.1-.7-4.2-1.3-6.3-1.9-2.1-.6-4.2-1.2-6.4-1.8-2.1-.6-4.3-1.1-6.4-1.6-2.1-.5-4.3-1-6.5-1.5-2.2-.5-4.3-.9-6.5-1.3-2.2-.4-4.3-.8-6.5-1.1-2.2-.4-4.4-.7-6.5-1-2.2-.3-4.4-.6-6.6-.8-2.2-.2-4.4-.5-6.6-.6-2.2-.2-4.4-.3-6.6-.5-2.2-.1-4.4-.2-6.6-.3-35.2-.6-71.4,4.2-103.8,18.6-70.4,31.2-120.4,80.3-148.2,152.8-.6,1.6-1.2,3.2-1.8,4.7-.6,1.6-1.1,3.2-1.7,4.8-.5,1.6-1.1,3.2-1.6,4.8-.5,1.6-1,3.2-1.5,4.8-.5,1.6-1,3.2-1.4,4.9-.5,1.6-.9,3.3-1.3,4.9-.4,1.6-.8,3.3-1.2,4.9-.4,1.6-.8,3.3-1.1,4.9-.4,1.6-.7,3.3-1,5-.3,1.7-.6,3.3-1,5-.3,1.7-.6,3.3-.9,5-.3,1.7-.5,3.3-.8,5-.2,1.7-.5,3.3-.7,5-.2,1.7-.4,3.4-.6,5-.2,1.7-.3,3.4-.5,5-.1,1.7-.3,3.4-.4,5-.1,1.7-.2,3.4-.3,5.1,0,1.7-.1,3.4-.2,5.1,0,1.7,0,3.4,0,5.1,0,1.7,0,3.4,0,5.1,0,1.7,0,3.4,0,5.1,0,1.7.1,3.4.2,5.1,0,1.7.2,3.4.3,5.1s.2,3.4.4,5c.1,1.7.3,3.4.5,5,.2,1.7.4,3.4.6,5,.2,1.7.4,3.3.7,5,.2,1.7.5,3.3.8,5,.3,1.7.6,3.3.8,5,.3,1.7.6,3.3.9,5,.3,1.7.7,3.3,1,5,.4,1.6.7,3.3,1.1,4.9,4.4,17.7,10.6,34.1,18,50.7-17.5-.5-35-.3-52.5-.5-4.1-11.1-8.3-22.2-11.3-33.7-7.4-27.6-10.3-62.3-8.6-90.8,6.2-105.6,59.3-201.7,149.4-258.6,14.5-9.1,29.2-17.1,45-23.9,8.4-3.6,18.6-5.8,26.2-10.7,5.9-3.8,12.8-11.5,18.6-16.3,23.8-20.3,47.4-40.7,70.7-61.4Z"/>
  </g>
</svg>